<svg id="Layer_1" data-name="Layer 1" xmlns="http://www.w3.org/2000/svg" xmlns:xlink="http://www.w3.org/1999/xlink" viewBox="0 0 126.28 129.38"><defs><style>.cls-1{fill:none;}.cls-2{isolation:isolate;}.cls-3{fill:#46a99a;}.cls-4{clip-path:url(#clip-path);}.cls-5{fill:#327a6f;}.cls-6{fill:#347d73;}.cls-7{fill:#358176;}.cls-8{fill:#37857a;}.cls-9{fill:#39897d;}.cls-10{fill:#3a8d81;}.cls-11{fill:#3c9184;}.cls-12{fill:#3e9588;}.cls-13{fill:#3f998c;}.cls-14{fill:#419d8f;}.cls-15{clip-path:url(#clip-path-2);}.cls-16{fill:#72757a;}.cls-17{fill:#2a665d;}.cls-18{fill:#bdc2c9;}.cls-19{fill:#76787d;}.cls-20{fill:#e9edf4;}.cls-21{clip-path:url(#clip-path-3);}.cls-22{fill:#777a7e;}.cls-23{fill:#7b7e83;}.cls-24{fill:#808388;}.cls-25{fill:#84878c;}.cls-26{fill:#888c91;}.cls-27{fill:#8d9096;}.cls-28{fill:#91959a;}.cls-29{fill:#96999f;}.cls-30{fill:#9a9ea4;}.cls-31{fill:#9ea2a8;}.cls-32{fill:#a3a7ad;}.cls-33{fill:#a7abb2;}.cls-34{fill:#acb0b7;}.cls-35{fill:#b0b4bb;}.cls-36{fill:#2b6960;}.cls-37{fill:#3f988a;}.cls-38{fill:#b5bcc6;}.cls-39{fill:#1c1e1c;}.cls-39,.cls-45{opacity:0.2;}.cls-40{fill:#bf941b;}.cls-41{fill:#ffcb27;}.cls-42{fill:#3c9285;}.cls-43{fill:#24665b;}.cls-44{fill:#307a6e;}.cls-46{fill:#061613;}.cls-47{clip-path:url(#clip-path-4);}.cls-48{fill:#e2e6ee;}.cls-49{fill:#e3e7ee;}.cls-50{fill:#6e7175;}.cls-51{clip-path:url(#clip-path-5);}.cls-52{fill:#4e5887;}.cls-53{fill:#515a8b;}.cls-54{fill:#535d8f;}.cls-55{fill:#555f93;}.cls-56{fill:#576296;}.cls-57{fill:#59649a;}.cls-58{fill:#5c669e;}.cls-59{fill:#5e69a2;}.cls-60{fill:#606ba5;}.cls-61{fill:#626ea9;}.cls-62{fill:#6470ad;}.cls-63{fill:#6673b1;}.cls-64{fill:#6975b4;}.cls-65{fill:#6b78b8;}.cls-66{fill:#6d7abc;}.cls-67{fill:#7f8ac4;}.cls-68{fill:#8691c7;}.cls-69{fill:#8b96ca;}.cls-70{fill:#909acc;}.cls-71{fill:#949ece;}.cls-72{fill:#545e91;}.cls-73{clip-path:url(#clip-path-6);}.cls-74{fill:#393f62;}.cls-75{fill:#3b4266;}.cls-76{fill:#3d4469;}.cls-77{fill:#3f476d;}.cls-78{fill:#414971;}.cls-79{fill:#444c75;}.cls-80{fill:#464e78;}.cls-81{fill:#48517c;}.cls-82{fill:#4a5380;}.cls-83{fill:#4c5584;}.cls-84{clip-path:url(#clip-path-7);}.cls-85{clip-path:url(#clip-path-8);}.cls-86{fill:#444f7f;}.cls-87{fill:#bec2ca;}.cls-88{fill:#76797e;}.cls-89{fill:#3a4165;}.cls-90{fill:#656a72;}.cls-91{fill:#7e2727;}.cls-92{fill:#d85645;}.cls-93{fill:#1b2655;}.cls-94{fill:#172149;}.cls-95{fill:#f0f3ff;}.cls-96{clip-path:url(#clip-path-9);}.cls-97{fill:#a83535;}.cls-98{fill:#ad3636;}.cls-99{fill:#b23737;}.cls-100{fill:#b73939;}.cls-101{fill:#bb3a3a;}.cls-102{fill:#c03c3c;}.cls-103{fill:#c53d3d;}.cls-104{fill:#c93f3f;}.cls-105{fill:#ce4040;}.cls-106{fill:#d34242;}.cls-107{fill:#d74343;}.cls-108{fill:#dc4545;}.cls-109{fill:#e14646;}.cls-110{fill:#e54848;}.cls-111{fill:#ea4949;}.cls-112{fill:#ed5f5f;}.cls-113{fill:#ee6868;}.cls-114{fill:#ee6f6f;}.cls-115{fill:#ef7575;}.cls-116{fill:#f07a7a;}.cls-117{fill:#b53838;}.cls-118{clip-path:url(#clip-path-10);}.cls-119{clip-path:url(#clip-path-11);}.cls-120{fill:#7a2626;}.cls-121{fill:#832929;}.cls-122{fill:#882a2a;}.cls-123{fill:#8c2c2c;}.cls-124{fill:#912d2d;}.cls-125{fill:#962f2f;}.cls-126{fill:#9a3030;}.cls-127{fill:#9f3232;}.cls-128{fill:#a43333;}.cls-129{fill:#ca3f3f;}.cls-130{fill:#a53232;}.cls-131{fill:#7a2323;}.cls-132{fill:#8e2b2b;}.cls-133{fill:#ffebeb;}.cls-134{fill:#216610;}.cls-135{fill:#70ba5b;}.cls-136{fill:#90e279;}</style><clipPath id="clip-path" transform="translate(-12.86 -14.81)"><path class="cls-1" d="M68.4,141.24l69.15-40.18a1,1,0,0,1-.88-.16L67.52,141.09C67.94,141.33,68.25,141.33,68.4,141.24Z"/></clipPath><clipPath id="clip-path-2" transform="translate(-12.86 -14.81)"><path class="cls-1" d="M68.4,141.24l69.15-40.18a.2.2,0,0,0,.1-.16L68.5,141.09A.18.18,0,0,1,68.4,141.24Z"/></clipPath><clipPath id="clip-path-3" transform="translate(-12.86 -14.81)"><path class="cls-1" d="M68.54,126.58l69.15-40.19a2,2,0,0,0-1-1.12L67.56,125.46A2,2,0,0,1,68.54,126.58Z"/></clipPath><clipPath id="clip-path-4" transform="translate(-12.86 -14.81)"><path class="cls-1" d="M133.71,88.36,78.25,56.13h0L133.7,88.37Z"/></clipPath><clipPath id="clip-path-5" transform="translate(-12.86 -14.81)"><path class="cls-1" d="M133.36,86.26,77.9,54a1.74,1.74,0,0,1-.64,1.39l55.46,32.22A1.79,1.79,0,0,0,133.36,86.26Z"/></clipPath><clipPath id="clip-path-6" transform="translate(-12.86 -14.81)"><path class="cls-1" d="M133,66.63,77.58,34.4a.74.74,0,0,1,.27.67L133.3,67.29A.71.71,0,0,0,133,66.63Z"/></clipPath><clipPath id="clip-path-7" transform="translate(-12.86 -14.81)"><path class="cls-1" d="M133,66.63,77.58,34.4a.37.37,0,0,0-.38,0l55.46,32.23A.34.34,0,0,1,133,66.63Z"/></clipPath><clipPath id="clip-path-8" transform="translate(-12.86 -14.81)"><path class="cls-1" d="M134,64.93,78.57,32.71a1.31,1.31,0,0,0-1.37.11L132.65,65A1.35,1.35,0,0,1,134,64.93Z"/></clipPath><clipPath id="clip-path-9" transform="translate(-12.86 -14.81)"><path class="cls-1" d="M136.07,60.8,80.62,28.57a1.35,1.35,0,0,1-.64.71l55.45,32.23A1.39,1.39,0,0,0,136.07,60.8Z"/></clipPath><clipPath id="clip-path-10" transform="translate(-12.86 -14.81)"><path class="cls-1" d="M136,48.87,80.53,16.64c-.09-.05-.29-.06-.59.11L135.39,49C135.7,48.81,135.9,48.82,136,48.87Z"/></clipPath><clipPath id="clip-path-11" transform="translate(-12.86 -14.81)"><path class="cls-1" d="M136,48.87,80.53,16.64a.09.09,0,0,1,.06.08L136,48.94A.1.1,0,0,0,136,48.87Z"/></clipPath></defs><g class="cls-2"><polygon class="cls-3" points="1.91 95.82 71.06 55.63 69.16 54.53 0 94.72 1.91 95.82"/><polygon class="cls-3" points="54.66 126.28 123.81 86.09 71.06 55.63 1.91 95.82 54.66 126.28"/><g class="cls-2"><g class="cls-4"><g class="cls-2"><polygon class="cls-5" points="55.54 126.43 124.69 86.25 124.69 86.25 55.54 126.44 55.54 126.43 55.54 126.43"/><path class="cls-6" d="M68.39,141.25l69.16-40.19,0,0L68.36,141.26Z" transform="translate(-12.86 -14.81)"/><path class="cls-7" d="M68.36,141.26l69.15-40.18h0L68.32,141.28l0,0Z" transform="translate(-12.86 -14.81)"/><path class="cls-8" d="M68.32,141.28l69.15-40.19h-.05L68.27,141.29Z" transform="translate(-12.86 -14.81)"/><path class="cls-9" d="M68.27,141.29l69.15-40.19h-.06L68.21,141.3Z" transform="translate(-12.86 -14.81)"/><path class="cls-10" d="M68.21,141.3l69.15-40.19h-.07L68.14,141.3Z" transform="translate(-12.86 -14.81)"/><path class="cls-11" d="M68.14,141.3l69.15-40.19h-.09L68,141.29Z" transform="translate(-12.86 -14.81)"/><path class="cls-12" d="M68,141.29,137.2,101.1a.53.53,0,0,1-.12,0L67.92,141.26l.12,0Z" transform="translate(-12.86 -14.81)"/><path class="cls-13" d="M67.92,141.26l69.16-40.19a.64.64,0,0,1-.18-.06L67.75,141.2l.17.06Z" transform="translate(-12.86 -14.81)"/><path class="cls-14" d="M67.75,141.2,136.9,101a1.58,1.58,0,0,1-.23-.11L67.52,141.09l.23.11Z" transform="translate(-12.86 -14.81)"/></g></g></g><g class="cls-2"><g class="cls-15"><g class="cls-2"><path class="cls-16" d="M68.4,141.24l69.15-40.18a.2.2,0,0,0,.1-.16L68.5,141.09a.18.18,0,0,1-.1.15Z" transform="translate(-12.86 -14.81)"/></g></g></g><path class="cls-17" d="M70,141.93l69.15-40.19a1.17,1.17,0,0,1-.52,1.09L69.43,143A1.19,1.19,0,0,0,70,141.93Z" transform="translate(-12.86 -14.81)"/><polygon class="cls-18" points="54.7 110.65 123.86 70.46 71.1 40 1.95 80.19 54.7 110.65"/><polygon class="cls-19" points="55.64 126.28 124.79 86.09 124.83 71.58 55.68 111.77 55.64 126.28"/><path class="cls-20" d="M14.81,95l-.05,15.63,52.76,30.46c.6.35,1,.2,1,0l0-14.51a2,2,0,0,0-1-1.12Z" transform="translate(-12.86 -14.81)"/><g class="cls-2"><g class="cls-21"><g class="cls-2"><path class="cls-16" d="M68.54,126.58l69.15-40.19v0L68.54,126.55v0Z" transform="translate(-12.86 -14.81)"/><path class="cls-22" d="M68.54,126.55l69.15-40.18v0L68.53,126.53a0,0,0,0,0,0,0Z" transform="translate(-12.86 -14.81)"/><path class="cls-23" d="M68.53,126.53l69.16-40.19v0L68.53,126.5v0Z" transform="translate(-12.86 -14.81)"/><path class="cls-24" d="M68.53,126.5l69.15-40.18v0L68.52,126.48s0,0,0,0Z" transform="translate(-12.86 -14.81)"/><path class="cls-25" d="M68.52,126.48l69.15-40.19s0,0,0,0L68.51,126.45s0,0,0,0Z" transform="translate(-12.86 -14.81)"/><path class="cls-26" d="M68.51,126.45l69.15-40.18v0L68.5,126.42v0Z" transform="translate(-12.86 -14.81)"/><path class="cls-27" d="M68.5,126.42l69.15-40.19,0,0L68.48,126.39l0,0Z" transform="translate(-12.86 -14.81)"/><path class="cls-28" d="M68.48,126.39,137.63,86.2l0,0L68.46,126.35l0,0Z" transform="translate(-12.86 -14.81)"/><path class="cls-29" d="M68.46,126.35l69.15-40.19,0,0L68.43,126.3l0,0Z" transform="translate(-12.86 -14.81)"/><path class="cls-30" d="M68.43,126.3l69.16-40.19,0,0L68.4,126.24l0,.06Z" transform="translate(-12.86 -14.81)"/><path class="cls-31" d="M68.4,126.24l69.15-40.18a.43.43,0,0,0,0-.07L68.35,126.18l.05.06Z" transform="translate(-12.86 -14.81)"/><path class="cls-32" d="M68.35,126.18,137.51,86l-.06-.08L68.29,126.09a.47.47,0,0,1,.06.09Z" transform="translate(-12.86 -14.81)"/><path class="cls-33" d="M68.29,126.09l69.16-40.18-.09-.11L68.21,126l.08.1Z" transform="translate(-12.86 -14.81)"/><path class="cls-34" d="M68.21,126,137.36,85.8l-.13-.14L68.08,125.85l.13.14Z" transform="translate(-12.86 -14.81)"/><path class="cls-35" d="M68.08,125.85l69.15-40.19a2.54,2.54,0,0,0-.51-.39L67.56,125.46a2.62,2.62,0,0,1,.52.39Z" transform="translate(-12.86 -14.81)"/></g></g></g><polygon class="cls-3" points="54.71 108.98 123.86 68.79 69.21 37.23 0.06 77.42 54.71 108.98"/><polygon class="cls-36" points="57.09 127.12 126.24 86.93 126.28 72.42 57.13 112.61 57.09 127.12"/><path class="cls-14" d="M69.94,126.92a4.12,4.12,0,0,0-.13-.47v0a5,5,0,0,0-.21-.48v0a4.48,4.48,0,0,0-.28-.47s0,0,0,0L69,125l0-.06a4.49,4.49,0,0,0-.36-.39c-.1-.1-.21-.19-.32-.28l-.15-.13a4.52,4.52,0,0,0-.51-.34L136.72,83.6a4.52,4.52,0,0,1,.51.34l.17.15.3.26,0,0c.1.1.2.2.29.31a.12.12,0,0,0,0,0l0,.06.11.13.15.21.06.09,0,0,.05.07.11.18.09.17,0,0v0l0,.09a1.11,1.11,0,0,0,.07.16h0l.06.16,0,.07s0,0,0,0a.14.14,0,0,1,0,.06l.06.18c0,.06,0,.12,0,.19a.06.06,0,0,1,0,0,.06.06,0,0,0,0,0,.77.77,0,0,1,0,.15,1.67,1.67,0,0,1,0,.31L70,127.42a3.73,3.73,0,0,0,0-.46A.06.06,0,0,1,69.94,126.92Z" transform="translate(-12.86 -14.81)"/><path class="cls-37" d="M12.91,92.23V93.9l1.9,1.1,52.75,30.46a2,2,0,0,1,1,1.12l0,14.51c0,.2-.38.35-1,0L14.76,110.63l-1.9-1.1v1.66l54.65,31.56c1.37.79,2.44.43,2.44-.82l0-14.51a4.8,4.8,0,0,0-2.42-3.63Z" transform="translate(-12.86 -14.81)"/></g><rect class="cls-38" x="40.57" y="90.45" width="0.2" height="59.56" transform="translate(-96.56 80.13) rotate(-59.82)"/><path class="cls-39" d="M60.12,137.42a7.82,7.82,0,0,1,2.33-4.36l-2.78-1.61-1.72-1c-.46-.27-.5-.44-.87,0a7.81,7.81,0,0,0-2,4c-.16,1.33,0,2.68-.24,4a5.19,5.19,0,0,1-1.55,2.77l1.74-.19c.17,0,1.54-.29,1.61-.16l1.73,3.3a5.23,5.23,0,0,0,1.47-2.46,32.64,32.64,0,0,0,.32-4.31C60.14,137.24,60.09,137.67,60.12,137.42Z" transform="translate(-12.86 -14.81)"/><g class="cls-2"><polygon class="cls-40" points="44.42 128.94 42.47 125.63 39.35 125.99 39.27 125.75 42.61 125.38 44.35 128.7 44.42 128.94"/><path class="cls-41" d="M59,136.74l.09-.53c.06-.25.13-.48.21-.72l0,0c.08-.22.18-.44.28-.65l0-.05c.1-.2.21-.39.32-.57a.35.35,0,0,1,.05-.08l.33-.5.1-.14.25-.32.06-.08.27-.32,0,0,.2-.22h0l.09-.09-5.08-2.95-.09.09h0l-.2.22,0,0,0,0-.25.29,0,.08-.09.1-.16.22-.11.15,0,0-.24.36-.06.1a.16.16,0,0,0,0,.07l-.1.15-.16.29-.07.13s0,0,0,0l-.05.09a2,2,0,0,0-.11.26,1.89,1.89,0,0,0-.11.25.08.08,0,0,1,0,.05s0,0,0,0l-.06.16a2.76,2.76,0,0,0-.08.27,2.46,2.46,0,0,0-.07.29h0a4.34,4.34,0,0,0-.09.52h0q0,.39-.06.78c0,.07,0,.13,0,.2,0,.25,0,.5,0,.75s0,.51,0,.76a1.93,1.93,0,0,0,0,.24c0,.22,0,.43-.06.65a1.49,1.49,0,0,1,0,.21l0,.19c0,.15-.05.3-.09.45s0,.06,0,.09a4.49,4.49,0,0,1-.19.59s0,0,0,0a5.48,5.48,0,0,1-.29.6v0a5.33,5.33,0,0,1-.41.6s0,0,0,0a7.15,7.15,0,0,1-.54.58l3.33-.37,1.74,3.32.08-.07c.11-.11.22-.22.31-.33l.15-.19,0,0s0,0,0,0l.15-.2.12-.18.1-.17v0l0,0,.06-.13.09-.17.08-.17a1.12,1.12,0,0,0,0-.13l0,0s0,0,0,0,0-.14.08-.22.05-.17.08-.25a.19.19,0,0,1,0-.08.29.29,0,0,1,0-.09c0-.05,0-.11,0-.16s0-.2,0-.29l0-.19s0,0,0-.06a.61.61,0,0,1,0-.14c0-.22,0-.44,0-.66s0-.16,0-.24c0-.25,0-.5,0-.76s0-.5,0-.75v-.2Q58.94,137.13,59,136.74Z" transform="translate(-12.86 -14.81)"/><path class="cls-40" d="M61.33,132.39l.08.23a8.35,8.35,0,0,0-2.08,3.53,11,11,0,0,0-.16,2.18c0,1.71,0,3.65-1.89,5.42l-.08-.24c1.69-1.6,1.7-3.35,1.72-5a10.56,10.56,0,0,1,.16-2.26A8.88,8.88,0,0,1,61.33,132.39Z" transform="translate(-12.86 -14.81)"/></g><polygon class="cls-42" points="22.29 75.32 59.34 96.85 107.87 68.83 70.82 47.31 22.29 75.32"/><polygon class="cls-43" points="71.06 49.47 24.4 76.41 22.53 75.32 71.06 47.31 108.11 68.83 106.24 69.91 71.06 49.47"/><polygon class="cls-44" points="14.35 81.06 51.39 102.59 57.01 99.34 19.96 77.82 14.35 81.06"/><g class="cls-45"><polygon class="cls-46" points="54.71 109.01 123.86 68.82 0.06 77.45 54.71 109.01"/></g><g class="cls-2"><g class="cls-2"><g class="cls-47"><g class="cls-2"><polygon class="cls-48" points="120.85 73.55 65.4 41.32 65.39 41.32 120.85 73.55 120.85 73.55 120.85 73.55"/><path class="cls-49" d="M133.71,88.36,78.25,56.13h0L133.7,88.37Z" transform="translate(-12.86 -14.81)"/></g></g></g><path class="cls-50" d="M133.71,88.36Z" transform="translate(-12.86 -14.81)"/><g class="cls-2"><g class="cls-51"><g class="cls-2"><path class="cls-52" d="M133.36,86.26,77.9,54v.05l55.46,32.22v0Z" transform="translate(-12.86 -14.81)"/><path class="cls-53" d="M133.36,86.31,77.9,54.09v0l55.46,32.23v-.06Z" transform="translate(-12.86 -14.81)"/><path class="cls-54" d="M133.36,86.37,77.9,54.14v.06l55.45,32.23a.13.13,0,0,1,0-.06Z" transform="translate(-12.86 -14.81)"/><path class="cls-55" d="M133.35,86.43,77.9,54.2s0,0,0,.06l55.46,32.22v0Z" transform="translate(-12.86 -14.81)"/><path class="cls-56" d="M133.35,86.48,77.89,54.26a.11.11,0,0,1,0,.05l55.46,32.23a.13.13,0,0,1,0-.06Z" transform="translate(-12.86 -14.81)"/><path class="cls-57" d="M133.34,86.54,77.88,54.31a.13.13,0,0,1,0,.06L133.33,86.6a.13.13,0,0,1,0-.06Z" transform="translate(-12.86 -14.81)"/><path class="cls-58" d="M133.33,86.6,77.87,54.37a.13.13,0,0,1,0,.06l55.46,32.22a.07.07,0,0,1,0-.05Z" transform="translate(-12.86 -14.81)"/><path class="cls-59" d="M133.32,86.65,77.86,54.43s0,0,0,0L133.3,86.71l0-.06Z" transform="translate(-12.86 -14.81)"/><path class="cls-60" d="M133.3,86.71,77.85,54.48s0,0,0,.06l55.46,32.23v-.06Z" transform="translate(-12.86 -14.81)"/><path class="cls-61" d="M133.29,86.77,77.83,54.54v.05l55.45,32.23,0,0Z" transform="translate(-12.86 -14.81)"/><path class="cls-62" d="M133.27,86.82,77.82,54.59s0,0,0,.06l55.45,32.22a.08.08,0,0,0,0-.05Z" transform="translate(-12.86 -14.81)"/><path class="cls-63" d="M133.25,86.87,77.8,54.65l0,.05,55.46,32.22a.43.43,0,0,0,0,0Z" transform="translate(-12.86 -14.81)"/><path class="cls-64" d="M133.24,86.92,77.78,54.7v0L133.22,87l0,0Z" transform="translate(-12.86 -14.81)"/><path class="cls-65" d="M133.22,87,77.77,54.74s0,0,0,0L133.2,87l0,0Z" transform="translate(-12.86 -14.81)"/><path class="cls-66" d="M133.2,87,77.75,54.79s0,0,0,0l55.45,32.23,0,0Z" transform="translate(-12.86 -14.81)"/><path class="cls-67" d="M133.18,87.06,77.73,54.83s0,0,0,0L133.17,87.1s0,0,0,0Z" transform="translate(-12.86 -14.81)"/><path class="cls-68" d="M133.17,87.1,77.71,54.87s0,0,0,0l55.45,32.23,0,0Z" transform="translate(-12.86 -14.81)"/><path class="cls-69" d="M133.14,87.14,77.69,54.91l0,.05,55.45,32.23s0,0,0,0Z" transform="translate(-12.86 -14.81)"/><path class="cls-70" d="M133.12,87.19,77.67,55a.25.25,0,0,0,0,.07l55.45,32.23a.43.43,0,0,1,0-.07Z" transform="translate(-12.86 -14.81)"/><path class="cls-71" d="M133.08,87.26,77.63,55l0,.07L133,87.33l0-.07Z" transform="translate(-12.86 -14.81)"/><path class="cls-70" d="M133,87.33,77.58,55.1l0,.06L133,87.39l0-.06Z" transform="translate(-12.86 -14.81)"/><path class="cls-69" d="M133,87.39,77.54,55.16l0,0L133,87.42l0,0Z" transform="translate(-12.86 -14.81)"/><path class="cls-68" d="M133,87.42,77.51,55.2l0,0L133,87.45l0,0Z" transform="translate(-12.86 -14.81)"/><path class="cls-67" d="M133,87.45,77.49,55.22l0,0,55.46,32.22,0,0Z" transform="translate(-12.86 -14.81)"/><path class="cls-66" d="M132.93,87.47,77.47,55.25l0,0L132.9,87.5l0,0Z" transform="translate(-12.86 -14.81)"/><path class="cls-65" d="M132.9,87.5,77.45,55.27l0,0,55.45,32.23,0,0Z" transform="translate(-12.86 -14.81)"/><path class="cls-64" d="M132.88,87.52,77.43,55.29l0,0,55.45,32.23,0,0Z" transform="translate(-12.86 -14.81)"/><path class="cls-63" d="M132.86,87.54,77.41,55.31l0,0,55.45,32.23,0,0Z" transform="translate(-12.86 -14.81)"/><path class="cls-62" d="M132.84,87.56,77.39,55.33l0,0,55.46,32.23,0,0Z" transform="translate(-12.86 -14.81)"/><path class="cls-61" d="M132.82,87.58,77.36,55.35l0,0L132.8,87.6l0,0Z" transform="translate(-12.86 -14.81)"/><path class="cls-60" d="M132.8,87.6,77.34,55.37h0l55.46,32.23Z" transform="translate(-12.86 -14.81)"/><path class="cls-59" d="M132.78,87.61,77.32,55.38l0,0,55.46,32.23,0,0Z" transform="translate(-12.86 -14.81)"/><path class="cls-58" d="M132.76,87.63,77.3,55.4h0l55.45,32.23Z" transform="translate(-12.86 -14.81)"/><path class="cls-57" d="M132.74,87.64,77.29,55.41h0l55.45,32.23Z" transform="translate(-12.86 -14.81)"/><polygon class="cls-56" points="119.86 72.84 64.41 40.61 64.4 40.62 119.86 72.84 119.86 72.84 119.86 72.84"/></g></g></g><polygon class="cls-72" points="120.45 52.48 64.99 20.26 65.05 39.23 120.5 71.45 120.45 52.48"/><g class="cls-2"><g class="cls-73"><g class="cls-2"><path class="cls-74" d="M133,66.63,77.58,34.4a.43.43,0,0,1,.15.15l55.45,32.22a.4.4,0,0,0-.15-.14Z" transform="translate(-12.86 -14.81)"/><path class="cls-75" d="M133.18,66.77,77.73,34.55l0,.06,55.45,32.23,0-.07Z" transform="translate(-12.86 -14.81)"/><path class="cls-76" d="M133.21,66.84,77.76,34.61l0,.06L133.24,66.9l0-.06Z" transform="translate(-12.86 -14.81)"/><path class="cls-77" d="M133.24,66.9,77.79,34.67a.14.14,0,0,0,0,.06L133.26,67s0,0,0-.06Z" transform="translate(-12.86 -14.81)"/><path class="cls-78" d="M133.26,67,77.81,34.73s0,0,0,.06L133.28,67s0,0,0-.05Z" transform="translate(-12.86 -14.81)"/><path class="cls-79" d="M133.28,67,77.82,34.79a.43.43,0,0,0,0,.05l55.46,32.23a.13.13,0,0,1,0-.06Z" transform="translate(-12.86 -14.81)"/><path class="cls-80" d="M133.29,67.07,77.83,34.84v.06l55.45,32.23v-.06Z" transform="translate(-12.86 -14.81)"/><path class="cls-81" d="M133.29,67.13,77.84,34.9a.09.09,0,0,0,0,.05L133.3,67.18v-.05Z" transform="translate(-12.86 -14.81)"/><path class="cls-82" d="M133.3,67.18,77.85,35V35L133.3,67.23v0Z" transform="translate(-12.86 -14.81)"/><path class="cls-83" d="M133.3,67.23,77.85,35v.05L133.3,67.29v-.06Z" transform="translate(-12.86 -14.81)"/><polygon class="cls-52" points="120.45 52.48 64.99 20.25 64.99 20.26 120.45 52.48 120.45 52.48 120.45 52.48"/></g></g></g><g class="cls-2"><g class="cls-84"><g class="cls-2"><path class="cls-16" d="M133,66.63,77.58,34.4l-.06,0L133,66.6l.05,0Z" transform="translate(-12.86 -14.81)"/><path class="cls-22" d="M133,66.6,77.52,34.38l0,0,55.45,32.23Z" transform="translate(-12.86 -14.81)"/><path class="cls-23" d="M132.93,66.59,77.48,34.36h0L132.9,66.58Z" transform="translate(-12.86 -14.81)"/><path class="cls-24" d="M132.9,66.58,77.45,34.36h0l55.45,32.22Z" transform="translate(-12.86 -14.81)"/><path class="cls-25" d="M132.87,66.58,77.42,34.36h0l55.46,32.22Z" transform="translate(-12.86 -14.81)"/><path class="cls-26" d="M132.85,66.58,77.39,34.36h0l55.45,32.23Z" transform="translate(-12.86 -14.81)"/><path class="cls-27" d="M132.82,66.59,77.37,34.36h0L132.8,66.59Z" transform="translate(-12.86 -14.81)"/><path class="cls-28" d="M132.8,66.59,77.35,34.36h0l55.45,32.22Z" transform="translate(-12.86 -14.81)"/><path class="cls-29" d="M132.78,66.59,77.33,34.37h0L132.76,66.6Z" transform="translate(-12.86 -14.81)"/><path class="cls-30" d="M132.76,66.6,77.31,34.37h0l55.45,32.23Z" transform="translate(-12.86 -14.81)"/><path class="cls-31" d="M132.74,66.61,77.29,34.38h0l55.45,32.22Z" transform="translate(-12.86 -14.81)"/><path class="cls-32" d="M132.72,66.61,77.27,34.39h0l55.46,32.23Z" transform="translate(-12.86 -14.81)"/><path class="cls-33" d="M132.71,66.62,77.25,34.39h0l55.46,32.23Z" transform="translate(-12.86 -14.81)"/><path class="cls-34" d="M132.69,66.63,77.23,34.4h0l55.45,32.23Z" transform="translate(-12.86 -14.81)"/><path class="cls-35" d="M132.67,66.64,77.22,34.41h0l55.46,32.23Z" transform="translate(-12.86 -14.81)"/></g></g></g><g class="cls-2"><g class="cls-85"><g class="cls-2"><path class="cls-74" d="M134,64.93,78.57,32.71l-.17-.09,55.45,32.23.17.08Z" transform="translate(-12.86 -14.81)"/><path class="cls-75" d="M133.85,64.85,78.4,32.62l-.15,0,55.46,32.22.14,0Z" transform="translate(-12.86 -14.81)"/><path class="cls-76" d="M133.71,64.81,78.25,32.59l-.11,0L133.59,64.8Z" transform="translate(-12.86 -14.81)"/><path class="cls-77" d="M133.59,64.8,78.14,32.57H78l55.45,32.22Z" transform="translate(-12.86 -14.81)"/><path class="cls-78" d="M133.49,64.79,78,32.57H78L133.4,64.79Z" transform="translate(-12.86 -14.81)"/><path class="cls-79" d="M133.4,64.79,78,32.57h-.09L133.32,64.8Z" transform="translate(-12.86 -14.81)"/><path class="cls-80" d="M133.32,64.8,77.86,32.58h-.08l55.46,32.23.08,0Z" transform="translate(-12.86 -14.81)"/><path class="cls-81" d="M133.24,64.82,77.78,32.59l-.08,0,55.46,32.22Z" transform="translate(-12.86 -14.81)"/><path class="cls-82" d="M133.16,64.83,77.7,32.61l-.07,0,55.45,32.23.08,0Z" transform="translate(-12.86 -14.81)"/><path class="cls-83" d="M133.08,64.86,77.63,32.63l-.08,0L133,64.88l.07,0Z" transform="translate(-12.86 -14.81)"/><path class="cls-52" d="M133,64.88,77.55,32.65l-.07,0,55.45,32.23.08,0Z" transform="translate(-12.86 -14.81)"/><path class="cls-53" d="M132.93,64.91,77.48,32.68l-.08,0,55.46,32.23.07,0Z" transform="translate(-12.86 -14.81)"/><path class="cls-54" d="M132.86,64.94,77.4,32.71l-.07,0L132.78,65l.08,0Z" transform="translate(-12.86 -14.81)"/><path class="cls-55" d="M132.78,65,77.33,32.75l-.08,0L132.71,65l.07,0Z" transform="translate(-12.86 -14.81)"/><path class="cls-56" d="M132.71,65,77.25,32.79l0,0L132.65,65l.06,0Z" transform="translate(-12.86 -14.81)"/></g></g></g><polygon class="cls-59" points="119.86 72.84 64.4 40.62 22.78 64.64 78.24 96.87 119.86 72.84"/><polygon class="cls-86" points="78.24 96.87 22.78 64.64 21.28 65.51 76.74 97.74 78.24 96.87"/><polygon class="cls-72" points="76.74 97.74 21.28 65.51 21.29 67.11 76.74 99.34 76.74 97.74"/><polygon class="cls-87" points="119.8 51.84 64.34 19.61 22.72 43.64 78.18 75.87 119.8 51.84"/><polygon class="cls-20" points="78.18 75.87 22.72 43.64 22.78 64.64 78.24 96.87 78.18 75.87"/><path class="cls-88" d="M132.66,66.65,91,90.68l.06,21,41.63-24a1.79,1.79,0,0,0,.64-1.39l-.06-19C133.3,66.74,133,66.44,132.66,66.65Z" transform="translate(-12.86 -14.81)"/><path class="cls-89" d="M89.53,89.94v1.6L91,90.68l41.63-24c.35-.21.64.09.64.64l.06,19a1.79,1.79,0,0,1-.64,1.39l-41.63,24-1.5.87v1.6l43.12-24.9a3.5,3.5,0,0,0,1-.88,5.06,5.06,0,0,0,1.06-2.91l-.06-19c0-1.45-.92-2.1-2-1.45Z" transform="translate(-12.86 -14.81)"/><polygon class="cls-59" points="119.79 50.23 64.34 18.01 21.22 42.9 76.67 75.13 119.79 50.23"/><polygon class="cls-72" points="76.67 75.13 21.22 42.9 21.22 44.51 76.68 76.73 76.67 75.13"/></g><polygon class="cls-90" points="78.21 79.95 78.11 79.78 118.1 56.66 118.2 56.84 78.21 79.95"/><polygon class="cls-38" points="78.14 79.95 22.7 47.83 22.8 47.66 78.24 79.78 78.14 79.95"/><path class="cls-39" d="M95.57,97.81a7.83,7.83,0,0,0-2.33-4.35L96,91.84l1.72-1c.47-.27.5-.43.88,0a7.79,7.79,0,0,1,2,4c.17,1.33,0,2.69.25,4a5.11,5.11,0,0,0,1.54,2.77l-1.74-.2a6.19,6.19,0,0,0-1.61-.15l-1.73,3.3a5.23,5.23,0,0,1-1.47-2.46,32.79,32.79,0,0,1-.32-4.32C95.55,97.63,95.61,98.07,95.57,97.81Z" transform="translate(-12.86 -14.81)"/><g class="cls-2"><polygon class="cls-91" points="85.55 89.33 87.5 86.02 90.63 86.39 90.71 86.15 87.37 85.78 85.63 89.1 85.55 89.33"/><path class="cls-92" d="M96.7,97.14c0-.18,0-.36-.09-.54a5.79,5.79,0,0,0-.21-.71l0,0a6.36,6.36,0,0,0-.28-.65l0-.06c-.1-.2-.21-.38-.32-.56l0-.08c-.11-.18-.23-.34-.34-.5l-.1-.14L95,93.53,95,93.46l-.26-.32,0,0-.2-.22,0,0-.08-.09,5.07-3,.09.1h0l.2.22,0,0,0,0c.08.08.16.18.25.29l.06.07.08.11.17.22.1.14,0,0c.08.11.17.23.25.36l0,.09,0,.07.09.16.16.28a.54.54,0,0,0,.07.13l0,.06,0,.09.12.25c0,.09.07.17.1.26s0,0,0,.05v0l.06.16c0,.09.06.18.08.26s0,.2.07.29h0a4.54,4.54,0,0,1,.09.51v0c0,.26,0,.51.06.78v.2c0,.25,0,.49,0,.75s0,.5,0,.76a1.93,1.93,0,0,0,0,.24c0,.22,0,.43.05.65a1.49,1.49,0,0,0,0,.21l0,.19c0,.15,0,.3.09.45l0,.08a4.06,4.06,0,0,0,.19.59s0,0,0,0a5.48,5.48,0,0,0,.29.6v0a5.33,5.33,0,0,0,.41.6s0,0,0,0a5.89,5.89,0,0,0,.54.59l-3.33-.37-1.74,3.32-.08-.07-.31-.33-.15-.19,0,0,0,0-.14-.2a.94.94,0,0,1-.12-.18l-.11-.17v0a.75.75,0,0,1-.07-.12l-.09-.17-.08-.18a.5.5,0,0,1,0-.13v0l0,0c0-.07,0-.15-.08-.22a2,2,0,0,1-.07-.26.19.19,0,0,1,0-.07.29.29,0,0,1,0-.09l0-.17a2.7,2.7,0,0,1,0-.28c0-.07,0-.13,0-.19a.13.13,0,0,0,0-.06.76.76,0,0,0,0-.15c0-.22,0-.44,0-.65s0-.16,0-.24c0-.25,0-.51,0-.76s0-.51,0-.75a1.41,1.41,0,0,1,0-.2C96.75,97.65,96.73,97.4,96.7,97.14Z" transform="translate(-12.86 -14.81)"/><path class="cls-91" d="M94.37,92.78l-.09.23a8.5,8.5,0,0,1,2.08,3.54,10.27,10.27,0,0,1,.16,2.18c0,1.7,0,3.64,1.89,5.42l.08-.24c-1.69-1.6-1.7-3.35-1.71-5a11.29,11.29,0,0,0-.17-2.27A9.09,9.09,0,0,0,94.37,92.78Z" transform="translate(-12.86 -14.81)"/></g><path class="cls-93" d="M73.79,43.62c-1.19-.69-.83-1.78.93-2.79l3.7-2.14,7.78,4.52-3.83,2.22c-1.85,1.06-3.85,1.25-5.17.48-1-.58-1.15-1.39-.36-2.07A3.89,3.89,0,0,1,73.79,43.62Zm7.3.78,1.61-.93-1.72-1-1.61.93c-.74.43-.88.88-.36,1.18a2.11,2.11,0,0,0,2.08-.18ZM78,40.71l-1.62.93c-.58.34-.66.72-.16,1a1.77,1.77,0,0,0,1.76-.08l1.61-.93L78,40.71Z" transform="translate(-12.86 -14.81)"/><g class="cls-2"><path class="cls-93" d="M66,50.38c2.28,1.32,2.18,3.36-.24,4.76a8.83,8.83,0,0,1-8.22.13c-2.26-1.31-2.13-3.35.29-4.74A8.7,8.7,0,0,1,66,50.38Zm-1.91,3.81c1.2-.69,1.2-1.87-.11-2.63a4.92,4.92,0,0,0-4.51-.06c-1.21.7-1.18,1.83.13,2.59a4.91,4.91,0,0,0,4.49.1Z" transform="translate(-12.86 -14.81)"/><polygon class="cls-93" points="32.42 43.02 38.55 43.21 40.01 47.65 42.39 46.27 41.41 43.3 43.59 43.37 45.5 44.48 47.49 43.33 39.71 38.81 37.72 39.96 41.09 41.91 34.73 41.69 32.42 43.02"/></g><path class="cls-93" d="M74.82,45.26C77.1,46.59,77,48.63,74.58,50a8.8,8.8,0,0,1-8.22.13c-2.26-1.31-2.14-3.34.29-4.74A8.76,8.76,0,0,1,74.82,45.26Zm-1.91,3.81c1.19-.69,1.2-1.86-.11-2.63a4.94,4.94,0,0,0-4.52,0c-1.21.7-1.18,1.82.13,2.59a4.9,4.9,0,0,0,4.5.09Z" transform="translate(-12.86 -14.81)"/><polygon class="cls-94" points="40.7 50.43 56.18 59.42 93.2 38.05 77.72 29.05 40.7 50.43"/><polygon class="cls-94" points="57.52 60.68 60.95 62.67 97.97 41.3 94.54 39.3 57.52 60.68"/><g class="cls-45"><path class="cls-95" d="M89.7,73.09a70.93,70.93,0,0,0,38-11.08l5.23,3L89.77,89.94,34.32,57.71l6.75-3.9A71.64,71.64,0,0,0,89.7,73.09Z" transform="translate(-12.86 -14.81)"/></g><g class="cls-2"><g class="cls-2"><g class="cls-96"><g class="cls-2"><polygon class="cls-97" points="123.22 45.99 67.76 13.76 67.76 13.76 123.22 45.99 123.22 45.99 123.22 45.99"/><polygon class="cls-98" points="123.22 45.99 67.76 13.76 67.76 13.77 123.22 45.99 123.22 45.99 123.22 45.99"/><polygon class="cls-99" points="123.22 45.99 67.76 13.77 67.76 13.77 123.22 45.99 123.22 45.99 123.22 45.99"/><polygon class="cls-100" points="123.22 45.99 67.76 13.77 67.76 13.77 123.22 46 123.22 45.99 123.22 45.99"/><polygon class="cls-101" points="123.22 46 67.76 13.77 67.76 13.77 123.22 46 123.22 46 123.22 46"/><polygon class="cls-102" points="123.22 46 67.76 13.77 67.76 13.78 123.22 46 123.22 46 123.22 46"/><polygon class="cls-103" points="123.22 46 67.76 13.78 67.76 13.78 123.21 46.01 123.22 46 123.22 46"/><polygon class="cls-104" points="123.21 46.01 67.76 13.78 67.76 13.79 123.21 46.01 123.21 46.01 123.21 46.01"/><polygon class="cls-105" points="123.21 46.01 67.76 13.79 67.76 13.79 123.21 46.02 123.21 46.01 123.21 46.01"/><polygon class="cls-106" points="123.21 46.02 67.76 13.79 67.76 13.79 123.21 46.02 123.21 46.02 123.21 46.02"/><polygon class="cls-107" points="123.21 46.02 67.76 13.79 67.75 13.8 123.21 46.03 123.21 46.02 123.21 46.02"/><polygon class="cls-108" points="123.21 46.03 67.75 13.8 67.75 13.81 123.21 46.03 123.21 46.03 123.21 46.03"/><polygon class="cls-109" points="123.21 46.03 67.75 13.81 67.75 13.82 123.2 46.04 123.21 46.03 123.21 46.03"/><polygon class="cls-110" points="123.2 46.04 67.75 13.82 67.75 13.82 123.2 46.05 123.2 46.04 123.2 46.04"/><polygon class="cls-111" points="123.2 46.05 67.75 13.82 67.74 13.84 123.2 46.06 123.2 46.05 123.2 46.05"/><path class="cls-112" d="M136.05,60.87,80.6,28.65h0l55.45,32.22Z" transform="translate(-12.86 -14.81)"/><path class="cls-113" d="M136.05,60.88,80.6,28.66h0L136,60.9v0Z" transform="translate(-12.86 -14.81)"/><path class="cls-114" d="M136,60.9,80.59,28.67h0L136,60.91Z" transform="translate(-12.86 -14.81)"/><path class="cls-115" d="M136,60.91,80.58,28.68s0,0,0,0L136,60.94v0Z" transform="translate(-12.86 -14.81)"/><path class="cls-116" d="M136,60.94,80.56,28.72l0,.06L136,61l0-.06Z" transform="translate(-12.86 -14.81)"/><path class="cls-115" d="M136,61,80.52,28.78l0,0,55.45,32.23,0,0Z" transform="translate(-12.86 -14.81)"/><path class="cls-114" d="M135.94,61.05,80.49,28.82l0,0,55.46,32.22s0,0,0,0Z" transform="translate(-12.86 -14.81)"/><path class="cls-113" d="M135.92,61.08,80.46,28.86l0,0,55.45,32.23,0,0Z" transform="translate(-12.86 -14.81)"/><path class="cls-112" d="M135.89,61.12,80.44,28.89l0,0,55.45,32.23,0,0Z" transform="translate(-12.86 -14.81)"/><path class="cls-111" d="M135.86,61.15,80.41,28.92l0,0,55.45,32.23,0,0Z" transform="translate(-12.86 -14.81)"/><path class="cls-110" d="M135.83,61.19,80.38,29l0,0L135.8,61.22l0,0Z" transform="translate(-12.86 -14.81)"/><path class="cls-109" d="M135.8,61.22,80.34,29l0,0,55.45,32.23,0,0Z" transform="translate(-12.86 -14.81)"/><path class="cls-108" d="M135.76,61.26,80.31,29l0,0,55.45,32.22,0,0Z" transform="translate(-12.86 -14.81)"/><path class="cls-107" d="M135.72,61.29,80.27,29.07l0,0,55.46,32.22s0,0,0,0Z" transform="translate(-12.86 -14.81)"/><path class="cls-106" d="M135.68,61.33,80.22,29.11l0,0,55.45,32.23.05,0Z" transform="translate(-12.86 -14.81)"/><path class="cls-105" d="M135.63,61.37,80.18,29.14l-.05,0L135.59,61.4l0,0Z" transform="translate(-12.86 -14.81)"/><path class="cls-104" d="M135.59,61.4,80.13,29.18l0,0,55.45,32.23.05,0Z" transform="translate(-12.86 -14.81)"/><path class="cls-103" d="M135.54,61.44,80.09,29.21l0,0,55.45,32.23,0,0Z" transform="translate(-12.86 -14.81)"/><path class="cls-102" d="M135.49,61.47,80,29.24l-.05,0L135.44,61.5l.05,0Z" transform="translate(-12.86 -14.81)"/><path class="cls-101" d="M135.44,61.5,80,29.27h0l55.45,32.23Z" transform="translate(-12.86 -14.81)"/></g></g></g><polygon class="cls-117" points="123.18 34.13 67.73 1.91 67.76 13.76 123.22 45.99 123.18 34.13"/><g class="cls-2"><g class="cls-118"><g class="cls-2"><path class="cls-16" d="M136,48.87,80.53,16.64h0L136,48.85l0,0Z" transform="translate(-12.86 -14.81)"/><path class="cls-22" d="M136,48.85,80.5,16.63h0l55.45,32.22Z" transform="translate(-12.86 -14.81)"/><path class="cls-23" d="M135.91,48.84,80.46,16.62h0l55.45,32.23Z" transform="translate(-12.86 -14.81)"/><path class="cls-24" d="M135.87,48.84,80.42,16.61h0l55.46,32.22Z" transform="translate(-12.86 -14.81)"/><path class="cls-25" d="M135.84,48.83,80.38,16.61h0L135.8,48.84Z" transform="translate(-12.86 -14.81)"/><path class="cls-26" d="M135.8,48.84,80.35,16.61h0l55.45,32.23Z" transform="translate(-12.86 -14.81)"/><path class="cls-27" d="M135.76,48.84,80.31,16.61h0l55.46,32.23Z" transform="translate(-12.86 -14.81)"/><path class="cls-28" d="M135.73,48.85,80.27,16.62h0l55.45,32.23Z" transform="translate(-12.86 -14.81)"/><path class="cls-29" d="M135.69,48.86,80.24,16.63h0l55.45,32.23Z" transform="translate(-12.86 -14.81)"/><path class="cls-30" d="M135.65,48.87,80.2,16.64h0l55.45,32.23Z" transform="translate(-12.86 -14.81)"/><path class="cls-31" d="M135.61,48.88,80.16,16.65l0,0,55.45,32.22Z" transform="translate(-12.86 -14.81)"/><path class="cls-32" d="M135.57,48.89,80.12,16.67l-.05,0,55.46,32.22,0,0Z" transform="translate(-12.86 -14.81)"/><path class="cls-33" d="M135.53,48.91,80.07,16.69l0,0,55.45,32.22.05,0Z" transform="translate(-12.86 -14.81)"/><path class="cls-34" d="M135.48,48.93,80,16.71l0,0L135.43,49l0,0Z" transform="translate(-12.86 -14.81)"/><path class="cls-35" d="M135.43,49,80,16.73l0,0L135.39,49l0,0Z" transform="translate(-12.86 -14.81)"/></g></g></g><g class="cls-2"><g class="cls-119"><g class="cls-2"><path class="cls-120" d="M136,48.87,80.53,16.64l0,0L136,48.91a.08.08,0,0,0,0,0Z" transform="translate(-12.86 -14.81)"/><polygon class="cls-91" points="123.17 34.1 67.72 1.87 67.72 1.88 123.18 34.11 123.17 34.1 123.17 34.1"/><polygon class="cls-121" points="123.18 34.11 67.72 1.88 67.73 1.88 123.18 34.11 123.18 34.11 123.18 34.11"/><polygon class="cls-122" points="123.18 34.11 67.73 1.88 67.73 1.89 123.18 34.12 123.18 34.11 123.18 34.11"/><polygon class="cls-123" points="123.18 34.12 67.73 1.89 67.73 1.89 123.18 34.12 123.18 34.12 123.18 34.12"/><polygon class="cls-124" points="123.18 34.12 67.73 1.89 67.73 1.9 123.18 34.12 123.18 34.12 123.18 34.12"/><polygon class="cls-125" points="123.18 34.12 67.73 1.9 67.73 1.9 123.18 34.13 123.18 34.12 123.18 34.12"/><polygon class="cls-126" points="123.18 34.13 67.73 1.9 67.73 1.9 123.18 34.13 123.18 34.13 123.18 34.13"/><polygon class="cls-127" points="123.18 34.13 67.73 1.9 67.73 1.9 123.18 34.13 123.18 34.13 123.18 34.13"/><polygon class="cls-128" points="123.18 34.13 67.73 1.9 67.73 1.91 123.18 34.13 123.18 34.13 123.18 34.13"/><polygon class="cls-97" points="123.18 34.13 67.73 1.91 67.73 1.91 123.18 34.13 123.18 34.13 123.18 34.13"/></g></g></g><path class="cls-101" d="M136.29,47.05h0a2.53,2.53,0,0,0-.42.1h0a2.13,2.13,0,0,0-.46.22L79.94,15.15,80,15.1l.1,0,.11-.05.1,0,.07,0h0l.1,0,.1,0,.1,0,.09,0h.43l.13,0,.15.07L137,47.16a1,1,0,0,0-.3-.1h0A1.09,1.09,0,0,0,136.29,47.05Z" transform="translate(-12.86 -14.81)"/><polygon class="cls-129" points="122.57 46.7 67.12 14.47 25.5 38.5 80.95 70.73 122.57 46.7"/><polygon class="cls-117" points="79.45 71.59 24 39.37 24 40.97 79.45 73.19 79.45 71.59"/><polygon class="cls-129" points="80.95 70.73 25.5 38.5 24 39.37 79.45 71.59 80.95 70.73"/><polygon class="cls-20" points="80.91 58.2 25.46 25.97 25.5 38.5 80.95 70.73 80.91 58.2"/><polygon class="cls-87" points="122.54 34.17 67.08 1.94 25.46 25.97 80.91 58.2 122.54 34.17"/><path class="cls-88" d="M93.77,73l0,12.53,41.62-24a1.39,1.39,0,0,0,.64-.71l0-11.86c0-.08-.22-.2-.65,0Z" transform="translate(-12.86 -14.81)"/><path class="cls-91" d="M92.27,72.27v1.61l1.5-.87,41.62-24c.43-.24.65-.12.65,0l0,11.86a1.39,1.39,0,0,1-.64.71l-41.62,24-1.5.86V88l43.12-24.89a4.08,4.08,0,0,0,2-3.12l0-11.85c0-1.09-.91-1.43-2.05-.76Z" transform="translate(-12.86 -14.81)"/><polygon class="cls-129" points="122.53 32.56 67.08 0.34 23.96 25.23 79.41 57.46 122.53 32.56"/><polygon class="cls-117" points="79.41 57.46 23.96 25.23 23.96 26.84 79.42 59.07 79.41 57.46"/></g><rect class="cls-90" x="90.76" y="66.61" width="46.19" height="0.2" transform="translate(-30.96 51.53) rotate(-30.21)"/><polygon class="cls-38" points="80.98 63.54 25.53 31.42 25.63 31.25 81.08 63.37 80.98 63.54"/><path class="cls-130" d="M66,31.54c-6.23,3.6-4,10.75,5,16S92.34,54,98.57,50.44s4-10.74-5-16S72.27,27.94,66,31.54Z" transform="translate(-12.86 -14.81)"/><path class="cls-131" d="M93.59,35.83c-9-5.22-21.32-6.54-27.55-2.94a6.37,6.37,0,0,0-3.48,4.67c-.29-2.4.82-4.58,3.48-6.11,6.23-3.6,18.57-2.28,27.55,2.94,5.93,3.45,8.92,7.74,8.46,11.29C101.67,42.45,98.74,38.82,93.59,35.83Z" transform="translate(-12.86 -14.81)"/><polygon class="cls-132" points="73.54 45.69 77.09 47.76 105.44 31.39 101.89 29.32 73.54 45.69"/><polygon class="cls-132" points="82.36 47.29 85.01 48.84 106.17 36.62 103.51 35.08 82.36 47.29"/><g class="cls-45"><path class="cls-133" d="M73.54,53.18A72.5,72.5,0,0,0,129,45.92c.63-.38,1.26-.76,1.87-1.15l4.49,2.61L92.27,72.27,36.81,40.05l6.62-3.82A72.21,72.21,0,0,0,73.54,53.18Z" transform="translate(-12.86 -14.81)"/></g><path class="cls-39" d="M127.21,64.77a7.82,7.82,0,0,0-2.33-4.36l2.78-1.61,1.72-1c.46-.27.5-.44.87,0a7.72,7.72,0,0,1,2,4c.17,1.33,0,2.68.25,4a5.24,5.24,0,0,0,1.54,2.77l-1.74-.2c-.16,0-1.54-.28-1.6-.15L129,71.54a5.15,5.15,0,0,1-1.47-2.46c-.38-1.41-.14-2.88-.32-4.31C127.19,64.59,127.24,65,127.21,64.77Z" transform="translate(-12.86 -14.81)"/><g class="cls-2"><polygon class="cls-134" points="117.11 56.36 119.06 53.05 122.18 53.41 122.26 53.18 118.92 52.8 117.18 56.13 117.11 56.36"/><path class="cls-135" d="M128.25,64.16a5.34,5.34,0,0,0-.09-.53,4.44,4.44,0,0,0-.21-.71v0c-.09-.23-.19-.45-.29-.66l0,0c-.1-.2-.2-.39-.31-.57a.22.22,0,0,1,0-.08c-.11-.17-.22-.34-.33-.49a1.71,1.71,0,0,0-.11-.14c-.08-.12-.17-.23-.25-.33l0-.07-.27-.32,0,0-.2-.22,0,0-.08-.09,5.07-3,.09.09,0,0,.19.21,0,0,0,0,.24.3.06.07.08.1c.06.07.11.15.17.23l.1.14,0,.05q.12.16.24.36a.41.41,0,0,1,.05.09l0,.07.09.15.16.29.07.13,0,.05a.41.41,0,0,1,.05.09l.12.26.1.25,0,.06s0,0,0,0l.06.16a2,2,0,0,1,.08.26c0,.1.05.19.07.29h0c0,.18.06.35.08.52h0a6.83,6.83,0,0,1,.06.78,1.41,1.41,0,0,1,0,.2c0,.25,0,.5,0,.76s0,.5,0,.75a2.09,2.09,0,0,0,0,.25c0,.21,0,.43,0,.64s0,.14,0,.22l0,.18.09.46a.24.24,0,0,1,0,.08,5.8,5.8,0,0,0,.19.59v0a5.48,5.48,0,0,0,.29.6v0a7.11,7.11,0,0,0,.41.6s0,0,0,0a5.93,5.93,0,0,0,.55.59l-3.34-.38L130,70.94a.6.6,0,0,0-.08-.08l-.31-.33-.15-.18,0,0,0,0-.15-.2-.12-.18s-.07-.11-.11-.17v0a.54.54,0,0,1-.07-.13l-.09-.17c0-.05-.05-.11-.08-.17s0-.09,0-.13v0s0,0,0,0l-.07-.21a2.58,2.58,0,0,1-.08-.26.24.24,0,0,1,0-.08l0-.08a1,1,0,0,1,0-.17,2.93,2.93,0,0,1,0-.29,1.08,1.08,0,0,1,0-.19.13.13,0,0,1,0-.06s0-.09,0-.14c0-.22,0-.44-.05-.66s0-.15,0-.23c0-.26,0-.51,0-.76s0-.51,0-.76a1.27,1.27,0,0,1,0-.2Q128.3,64.55,128.25,64.16Z" transform="translate(-12.86 -14.81)"/><path class="cls-136" d="M125.92,59.81l-.09.23a8.6,8.6,0,0,1,2.09,3.53,11.08,11.08,0,0,1,.16,2.18c0,1.71,0,3.65,1.88,5.42l.08-.23c-1.68-1.61-1.7-3.35-1.71-5a10.61,10.61,0,0,0-.17-2.27A9.09,9.09,0,0,0,125.92,59.81Z" transform="translate(-12.86 -14.81)"/></g></svg>